<?xml version="1.0" standalone="no"?>
<!DOCTYPE svg PUBLIC "-//W3C//DTD SVG 20010904//EN"
 "http://www.w3.org/TR/2001/REC-SVG-20010904/DTD/svg10.dtd">
<svg version="1.0" xmlns="http://www.w3.org/2000/svg"
 width="512.000000pt" height="612.000000pt" viewBox="0 0 512.000000 612.000000" 
 preserveAspectRatio="xMidYMid meet">

<g transform="translate(0.000000,612.000000) scale(0.100000,-0.100000)"
fill="#f5167e" stroke="none">
<path fill="#f5167e" d="M2030 5964 c-107 -29 -256 -71 -330 -91 l-135 -38 -3 -187 -2 -187
-230 -193 -230 -193 0 -271 0 -272 -44 -53 c-158 -194 -297 -473 -360 -726
-57 -226 -72 -516 -41 -760 103 -791 634 -1688 1492 -2523 245 -239 376 -350
413 -350 34 0 87 42 283 225 741 689 1277 1455 1507 2155 91 276 130 508 130
777 0 397 -107 754 -324 1075 l-62 93 -12 145 c-7 80 -19 235 -27 345 -25 340
-22 321 -58 343 -38 23 -251 157 -557 351 -124 79 -233 147 -242 152 -16 9
-219 29 -433 43 -44 3 -120 8 -170 12 l-90 7 -132 88 c-73 49 -136 89 -140 88
-5 -1 -96 -25 -203 -55z m157 -512 l-2 -284 -115 -29 c-122 -32 -252 -80 -364
-136 -37 -19 -69 -33 -71 -31 -1 2 -5 183 -8 403 l-6 400 277 85 277 85 7
-105 c5 -58 7 -233 5 -388z m189 393 l91 -58 6 -156 c4 -86 7 -217 7 -291 l0
-136 -112 -12 c-62 -6 -113 -10 -114 -9 -1 1 -5 170 -8 376 l-7 374 23 -15
c13 -8 64 -41 114 -73z m493 -105 c151 -11 275 -21 276 -23 1 -1 10 -119 19
-262 9 -143 20 -282 23 -309 6 -46 5 -49 -13 -42 -106 43 -409 96 -548 96
l-83 0 -6 137 c-4 75 -7 202 -7 283 l0 146 33 -3 c17 -2 155 -12 306 -23z
m716 -287 c121 -76 259 -163 307 -193 78 -49 88 -58 88 -85 0 -16 11 -167 25
-335 13 -167 23 -306 21 -307 -2 -2 -27 23 -57 54 -186 198 -395 347 -626 448
-48 22 -89 40 -91 41 -3 2 -27 310 -38 497 l-7 119 79 -50 c43 -27 178 -112
299 -189z m-2020 -304 l7 -217 -79 -52 c-100 -68 -170 -125 -260 -212 l-73
-69 0 218 0 218 198 166 c108 91 198 166 198 165 1 -1 5 -98 9 -217z m1247
-104 c244 -37 480 -122 675 -243 458 -284 759 -739 837 -1265 20 -131 20 -386
2 -527 -88 -658 -469 -1370 -1127 -2105 -122 -136 -483 -496 -581 -579 l-58
-48 -57 48 c-101 85 -461 444 -582 579 -603 673 -980 1340 -1100 1942 -35 178
-44 284 -39 480 8 288 57 493 178 738 255 519 753 887 1320 975 41 7 82 13 90
15 50 10 358 3 442 -10z"/>
<path fill="#f5167e" d="M2335 4584 c-304 -47 -573 -188 -786 -411 -181 -191 -296 -409 -351
-666 -29 -137 -31 -399 -5 -531 38 -186 129 -399 230 -536 l56 -75 -144 -145
c-78 -80 -148 -155 -154 -167 -17 -34 -13 -92 9 -128 38 -62 17 -60 685 -63
647 -3 831 4 975 38 581 140 1002 628 1049 1218 30 373 -85 728 -328 1010
-301 350 -780 527 -1236 456z m395 -275 c289 -55 550 -224 710 -460 190 -279
241 -643 134 -964 -63 -190 -196 -381 -355 -509 -101 -81 -267 -165 -399 -203
l-95 -27 -545 -4 -544 -3 77 77 c120 120 121 164 7 291 -122 136 -209 307
-252 497 -26 116 -29 335 -5 442 49 219 151 408 302 559 185 184 411 288 695
319 51 6 206 -3 270 -15z"/>
<path fill="#f5167e"  d="M1930 3353 c-45 -23 -83 -95 -74 -138 16 -74 64 -115 136 -115 172 0
183 245 11 266 -25 3 -50 -1 -73 -13z"/>
<path fill="#f5167e" d="M2484 3356 c-137 -60 -92 -256 59 -256 44 0 53 4 88 39 35 34 39 44
39 87 0 108 -91 171 -186 130z"/>
<path fill="#f5167e" d="M3025 3351 c-48 -29 -67 -57 -72 -104 -10 -85 47 -147 135 -147 139
0 184 180 62 249 -46 26 -86 27 -125 2z"/>
</g>
</svg>
