<?xml version="1.0" standalone="no"?>
<!DOCTYPE svg PUBLIC "-//W3C//DTD SVG 20010904//EN"
 "http://www.w3.org/TR/2001/REC-SVG-20010904/DTD/svg10.dtd">
<svg version="1.0" xmlns="http://www.w3.org/2000/svg"
 width="2216.000000pt" height="1936.000000pt" viewBox="0 0 2216.000000 1936.000000"
 preserveAspectRatio="xMidYMid meet">

<g transform="translate(0.000000,1936.000000) scale(0.100000,-0.100000)"
fill="#000000" stroke="none">
<path d="M4730 17510 l0 -1580 595 0 595 0 0 1580 0 1580 -595 0 -595 0 0
-1580z"/>
<path d="M16210 17510 l0 -1580 590 0 590 0 0 1580 0 1580 -590 0 -590 0 0
-1580z"/>
<path d="M683 7318 c3 -5040 4 -5398 20 -5475 58 -282 176 -501 370 -690 194
-189 396 -293 672 -350 87 -17 429 -18 9315 -18 8831 0 9229 1 9315 18 271 54
499 172 680 352 183 182 295 388 362 665 17 72 18 317 20 5483 l3 5407 -10380
0 -10380 0 3 -5392z"/>
</g>
</svg>
